# xmcd
#
# Track frame offsets:
#	150
#	11977
#	23452
#	36112
#	48705
#	62115
#	74117
#	85357
#	97855
#	110317
#	125935
#	140627
#	153375
#	164762
#	181672
#	193380
#	203835
#	214180
#	223487
#	236380
#
# Disc length: 3323 seconds
#
# Revision: 2
# Processed by: cddbd v1.5.2PL0 Copyright (c) Steve Scherf et al.
# Submitted via: EasyCDDAExtractor 11.1.0.1
#
DISCID=370cf914
DTITLE=Various Artist - House Rockin' and Hip Shakin', Volume 3: Killer Swamp B
DTITLE=lues Guitar
DYEAR=1998
DGENRE=Blues
TTITLE0=Slim Harpo - My Little Queen Bee (Got A Brand New King)
TTITLE1=Lonesome Sundown - Lost Without Love
TTITLE2=Guitar Gable - This Could Go On Forever
TTITLE3=Shy Guy Douglas - She's My Kinda Girl
TTITLE4=Jimmy Anderson - I'm A King Bee
TTITLE5=Clarence Samuels - Chicken Hearted Baby
TTITLE6=Lazy Lester - I'm A Lover, Not A Fighter
TTITLE7=Robert Garrett - Quit My Drinkin' aka When I Quit Drinkin'
TTITLE8=Blue Charlie - I'm Gonna Kill That Hen
TTITLE9=Joe Johnson - Dirty Woman Blues
TTITLE10=Lightnin' Slim - The Strangest Feelin'
TTITLE11=Arthur Gunter - Crazy Me
TTITLE12=Classie Ballou - Confusion
TTITLE13=Jimmy Dawkins - 1011 Woodland
TTITLE14=Silas Hogan - Airport Blues
TTITLE15=The Fat Man - Glad I Don't Worry No More
TTITLE16=Leroy Washington - Give Me My Rights (When I'm Not Wrong)
TTITLE17=Lonesome Sundown - My Home Ain't Here
TTITLE18=Lightnin' Slim - My Starter Won't Work
TTITLE19=Slim Harpo - Tip On In (Part 1)
EXTD=
EXTT0=
EXTT1=
EXTT2=
EXTT3=
EXTT4=
EXTT5=
EXTT6=
EXTT7=
EXTT8=
EXTT9=
EXTT10=
EXTT11=
EXTT12=
EXTT13=
EXTT14=
EXTT15=
EXTT16=
EXTT17=
EXTT18=
EXTT19=
PLAYORDER=
